<?xml version="1.0" encoding="utf-8"?>
<!-- Generator: Adobe Illustrator 25.4.1, SVG Export Plug-In . SVG Version: 6.00 Build 0)  -->
<svg version="1.1" id="Layer_1" xmlns="http://www.w3.org/2000/svg" xmlns:xlink="http://www.w3.org/1999/xlink" x="0px" y="0px"
	 viewBox="0 0 5510.2 5509.6" style="enable-background:new 0 0 5510.2 5509.6;" xml:space="preserve">
<path d="M4183,3698.5c-171.4-19.7-351.9-92-487.9-195.5c-377.6-287.4-502.7-792.9-302.2-1220.8
	c213.5-455.7,740.6-682.6,1214.4-522.9c305.7,103.1,532.4,329.9,634.9,635.3c113.6,338.5,33.6,714.9-208.8,982.1
	c-163.7,180.5-388.7,295.1-632.8,322.3C4350,3704.6,4234,3704.4,4183,3698.5L4183,3698.5z M4429.3,3653.2
	c418.7-57.6,753.8-393.4,813.2-815.2c9.2-65,9.2-198.2,0-263.1c-59.5-422-389.9-753.4-813.1-815.7c-69.4-10.2-198.7-10.2-268.1,0
	c-422.1,62.1-751.1,390.4-812.9,811.5c-9.9,67.2-9.9,204.3,0,271.5c46.5,316.1,250.2,592.8,535.8,727.5
	C4056.8,3651.1,4240.1,3679.2,4429.3,3653.2z M4199.7,3624.5c-10.5-1.1-26.1-3.1-34.7-4.5l-15.5-2.6v-122.8l-29.9-7.6
	c-16.4-4.2-44.2-11.8-61.7-16.8l-31.8-9.2l-29.8,52.1c-16.4,28.7-32.8,52.1-36.5,52.1c-23.4,0-249.6-132.4-244-142.8
	c5.7-10.4,44.1-77.3,51.4-89.5l8.8-14.6l-46.5-46.1L3683,3226l-26.3,15.5c-14.5,8.5-38.5,22.4-53.3,30.9l-27,15.4l-40.8-61.1
	c-38.7-57.9-98.9-170.3-98.9-184.8c0-3.7,23.5-20.1,52.1-36.5l52.1-29.8l-9.2-31.8c-5.1-17.5-12.6-45.2-16.8-61.7l-7.6-29.9h-122.8
	l-3.8-18c-5-23.3-5-232.6,0-256l3.8-18h122.9l10.8-44.2c6-24.3,13.5-52.1,16.9-61.6l6-17.4l-52.2-29.8
	c-28.7-16.4-52.2-32.9-52.2-36.6c0-14.4,60.2-126.9,98.9-184.8l40.8-61.1l27,15.4c14.8,8.4,38.8,22.3,53.3,30.9l26.3,15.5l46.5-46.1
	l46.5-46.1l-8.8-14.6c-7.3-12.2-45.7-79.1-51.4-89.5c-5.6-10.4,220.5-142.8,244-142.8c3.7,0,20.1,23.5,36.5,52.1l29.8,52.1l31.8-9.2
	c17.5-5.1,45.2-12.6,61.7-16.8l29.9-7.6v-122.7l18-3.8c23.3-5,232.6-5,256,0l18,3.8v122.3l61.9,16.7l61.9,16.7l29.6-51.8
	c16.3-28.5,32.7-51.8,36.3-51.8c23.4,0,249.6,132.4,244,142.8c-5.7,10.4-44.1,77.3-51.4,89.5l-8.8,14.6l46.5,46.1l46.5,46.1
	l26.3-15.5c14.5-8.5,38.5-22.4,53.3-30.9l27-15.4l40.8,61.1c38.7,57.9,98.9,170.3,98.9,184.8c0,3.7-23.3,20-51.8,36.3l-51.8,29.6
	l16.7,61.9l16.7,61.9h122.3l3.8,18c2.1,9.9,3.8,67.4,3.8,128c0,60.5-1.7,118.1-3.8,128l-3.8,18h-122.3l-16.7,61.9l-16.7,61.9
	l51.8,29.6c28.5,16.3,51.8,32.7,51.8,36.3c0,14.4-60.2,126.9-98.9,184.8l-40.8,61.1l-27-15.4c-14.8-8.4-38.8-22.3-53.3-30.9
	l-26.3-15.5l-46.5,46.1l-46.5,46.1l8.8,14.6c7.3,12.2,45.7,79.1,51.4,89.5c5.6,10.4-220.5,142.8-244,142.8c-3.7,0-20-23.3-36.3-51.8
	l-29.6-51.8l-61.9,16.7l-61.9,16.7v60.7c0,58.9-0.3,60.9-10.8,64C4418,3623.5,4228,3627.3,4199.7,3624.5L4199.7,3624.5z
	 M4325.3,3538.1l25.1-3v-117.7l22.7-2.8c42.3-5.1,146.9-32.1,187.4-48.5c22.2-8.9,41.4-15.1,42.8-13.8c1.3,1.3,15.5,24.9,31.6,52.4
	l29.2,50l40.5-23.7c22.3-13,43.5-25.6,47.2-28c5.4-3.4,0.8-14.6-23.1-56.3l-29.8-52l15.8-12c54.6-41.3,115.5-102.2,157.2-157.3
	l12-15.8l51.7,29.7c28.4,16.3,52.3,28.9,53,27.9c9.1-12.2,23.9-36.4,38-61.8l17.4-31.4l-52.5-29.9c-28.9-16.5-52.5-30.7-52.5-31.5
	c0-0.9,6.4-16.5,14.1-34.8c16.2-38.1,48-157,48.1-179.8c0.1-37.4-0.8-36.8,64.4-36.8h58.6l3.2-27.2c1.7-15,1.8-39.7,0-55l-3.1-27.8
	h-58.6c-65.2,0-64.3,0.5-64.4-36.8c-0.1-22.8-31.9-141.7-48.1-179.8c-7.8-18.2-14.1-33.9-14.1-34.8s23.6-15,52.5-31.5l52.5-29.9
	l-17.4-31.4c-14.1-25.5-29-49.6-38-61.8c-0.7-0.9-24.4,11.5-52.6,27.7c-28.2,16.2-52.7,27.7-54.4,25.7c-1.7-2.1-17.3-21-34.6-42
	c-36.5-44.4-80.7-87.5-119.8-116.9c-15.1-11.3-27.5-21.3-27.5-22s13.3-24.4,29.4-52.6c23.6-41.2,28.1-52.1,22.7-55.6
	c-3.7-2.4-24.9-14.9-47.2-28l-40.5-23.7l-29.2,50c-16,27.5-30.4,51.3-32,52.8s-17.8-3.7-36.2-11.8c-33.9-14.8-152.1-46-193.6-50.9
	l-22.7-2.7v-117.8l-27.2-3.2c-15-1.7-39.7-1.8-55,0l-27.8,3.1v118l-15.5,2.4c-8.5,1.3-26.1,3.8-39.1,5.4
	c-28.1,3.6-138.6,34.9-173.5,49.1l-24.8,10.1l-30.4-52.3l-30.4-52.2l-40.4,23.6c-22.2,13-43.4,25.6-47.1,27.9
	c-5.4,3.4-0.9,14.5,22.9,55.9c16.3,28.4,27.9,53,25.9,54.6c-75.8,61-102.2,86.1-143.8,136.5c-17.4,21-33,40-34.7,42
	c-1.7,2.1-26.2-9.5-54.4-25.7c-28.2-16.2-51.8-28.6-52.6-27.7c-9.1,12.2-23.9,36.3-38,61.8l-17.4,31.4l52.5,29.9
	c28.9,16.5,52.5,30.4,52.5,31c0,0.6-7.5,19.3-16.6,41.5c-16.1,39.4-42.4,141.7-48.1,187.5l-2.8,22.7h-117.8l-3.1,27.8
	c-1.7,15.3-1.7,40.1,0,55l3.2,27.2h117.9l2.2,15.5c11.2,77.4,32.7,161,53.8,208.7c6.3,14.2,11.4,26.4,11.4,27.2
	c0,0.8-23.6,15-52.5,31.4l-52.5,29.9l17.4,31.4c14.1,25.5,29,49.6,38,61.8c0.7,0.9,24.4-11.5,52.6-27.7s52.7-27.7,54.4-25.7
	s17.3,21,34.6,42c36.5,44.4,80.7,87.5,119.8,116.9c15.1,11.3,27.5,21.3,27.5,22s-13.3,24.4-29.4,52.6
	c-23.6,41.2-28.1,52.1-22.7,55.6c3.7,2.4,24.9,14.9,47.1,27.9l40.4,23.6l30.4-52.2l30.4-52.2l24.8,10.1
	c52.8,21.4,148.4,46.6,205.4,54.1l22.7,3v118.5l18,1.9C4290.7,3541.1,4299.9,3541.2,4325.3,3538.1L4325.3,3538.1z M4281.5,3362
	c-8.1-10.7-19.3-18.4-31.2-21.6c-10.2-2.8-19.7-8-21.1-11.7c-3-7.8,60.9-100.1,70.8-102.3c7.1-1.6,79.1,91.2,79.1,101.9
	c0,3.8-8.3,7.7-20.3,9.8c-15,2.5-24.8,8.3-37.5,21.9c-9.4,10.2-19.4,18.5-22.2,18.5C4296.4,3378.6,4288.4,3371.1,4281.5,3362
	L4281.5,3362z M3961.7,3289c-42.5-2.4-45.7-7.7-34.6-58c10.4-46.9,26.1-77.8,52.9-103.9c41.7-40.5,89.6-54.5,187.6-54.7
	c60.2-0.1,67.8,3.1,67.8,29.1c0,37.7-0.3,37.8-84.8,37.8c-66.1,0-77.3,1.2-95.5,10c-13.6,6.6-20.6,13.1-20.6,19.2
	c0,8.7,4.7,9.1,94.7,9.1c67.3,0,96.4,1.7,100.5,5.8c6.9,6.9,7.8,88.8,1,99.5c-3.8,6-22.9,7.2-120.7,7.6
	C4046.3,3290.6,3979.5,3290,3961.7,3289L3961.7,3289z M4427.1,3288.9c-36.3-1-56.1-3.5-58.5-7.3c-2-3.2-3.7-25.6-3.8-49.7
	c-0.1-63.3-5.1-60.6,109.7-58.4c80.2,1.6,93.5,0.8,93.5-5.2c0-3.9-9.7-12.5-21.5-19.2c-20.4-11.4-25.3-12.1-95.1-12.1
	c-69.2,0-74-0.6-80.2-9.9c-4.6-6.9-5.6-16.8-3.5-32.7l3.1-22.8l86.6,1.7c99.9,2,114.4,6.2,155.6,44.7c40.6,38,64.2,90.5,61.6,137
	c-1.4,24.4-2.2,25.7-18.2,31.2C4640.4,3291.7,4561.6,3292.6,4427.1,3288.9L4427.1,3288.9z M4275.4,3163.8
	c-19.6-12.3-25.4-23.6-25.4-49.5c0-49.8,63.9-68,93-26.5c4.1,5.9,7.5,19.8,7.5,31.1C4350.4,3159.5,4308.6,3184.6,4275.4,3163.8
	L4275.4,3163.8z M3929.4,3078.4c-17.9-34-60.5-73.9-99.7-93.5c-42.2-21.1-79.4-29.1-121.1-26.2c-18.5,1.3-34.1,0.3-36.9-2.5
	c-6.6-6.6,9.7-37.7,26.8-51.4c12.2-9.7,16.9-10.4,56.3-7.9c78.4,4.8,121.4,25.8,187.4,91.5c55.3,55,57.9,63,29.9,91.6
	c-11.4,11.6-23,21.1-25.7,21.1C3943.6,3101.1,3936,3090.9,3929.4,3078.4L3929.4,3078.4z M4627.6,3073.2
	c-20.6-18.3-20.6-18.4-13.9-34.7c9.4-23,83.1-95.5,115.5-113.8c55-31,134.2-47.6,165.3-34.8c13.9,5.8,43.4,51,37.3,57.1
	c-1.8,1.8-24.1,3.5-49.5,3.8c-84.8,1-146,34.4-200.7,109.5c-17.1,23.5-24.3,30.9-30.3,31C4649.6,3091.5,4639,3083.3,4627.6,3073.2z
	 M4024.3,3034c-4.3-2.5-14.3-15.9-22.1-29.8c-7.8-13.8-30.4-40.6-50.4-59.5c-55.6-52.8-116.8-78.6-189.5-79.9
	c-19.8-0.4-31.5-2.7-32.7-6.5c-1.1-3.3,9-16.6,22.4-29.7c46-44.8,134.7-77.2,185.2-67.6c100.7,19.1,196.6,106.6,243.5,221.9
	c18.6,45.9,15.5,55.9-17.7,55.9c-22.5,0-31.4-7.6-42-36.2c-28.1-75-122.1-173.2-161.5-168.7c-10.7,1.2-13.4,3.9-13.4,13.4
	c0,9.3,6.5,16.1,29.9,31.5c40.4,26.4,50.2,36.3,80.4,81c27.8,41.2,36.9,67.5,25.5,74.6C4073.1,3040.1,4034.3,3039.8,4024.3,3034
	L4024.3,3034z M4230.8,3032.7l-11.9-6.1l1.7-210.4c1.8-227.8-1.2-280.1-20.7-361c-14.1-58.7-19.7-72.7-53.7-134.8
	c-13.9-25.5-25.3-48.6-25.3-51.4c0-18.1,58.9,18.1,91.5,56.2c19.2,22.4,42,66.8,56.6,110.1c9.5,28.2,9.8,39.2,9.8,311.5
	c0,274.1-0.3,282.4-9.3,287.2C4257.2,3040.5,4245.4,3040.1,4230.8,3032.7z M4325.4,3033.8c-7.8-4.5-8.2-22.7-6-288.1
	c2.2-268.3,2.8-285.2,12.2-319.1c5.5-19.7,16.6-48.3,24.7-63.6c16.3-30.7,60.7-74.7,90.6-90c34.6-17.6,34.5-10.4-0.7,59.2
	c-25.8,51-35.8,77.4-48.6,128.3l-16.1,64.1l-1.4,251.2c-1.3,226.6-2.2,251.8-9.3,257.2C4361.4,3040.1,4336.9,3040.5,4325.4,3033.8z
	 M4424.6,3034.2c-13.2-2.5-14.3-4.3-14-21.8c0.7-40.7,66-147.6,116-190.1c32-27.2,72.4-48.8,108.7-58.3
	c68.3-17.8,128.2-2.4,202.2,52.2c23.5,17.3,29.9,24.6,28.7,32.8c-1.4,9.8-3.6,10.4-32.9,8.9c-79.5-4.1-184.5,57.1-230.4,134.4
	c-23,38.6-40.4,49.4-71.4,44.2c-14.9-2.5-18.5-5.2-18.5-13.6c0-22.3,35.7-72.5,89.9-126.5c44.6-44.4,53.3-55.4,48.6-61
	c-8.3-10.1-18.4-8.5-45.2,7.1c-47.9,27.9-99,90.3-122.2,149.2C4468.3,3032,4456.7,3040.2,4424.6,3034.2L4424.6,3034.2z
	 M4157.4,2867.8c-6.3-9.9-15-21-19.5-24.8c-20.1-16.7-22.2-29.6-21.7-133.1c0.3-54.6-1-103.1-2.9-107.9c-2.2-5.8-7.3-8.1-15.6-7.2
	c-17.6,2.1-21.1,19.8-17.8,90c2.9,62.9,0.2,90.9-8.9,90.9c-3,0-14-4.6-24.5-10.3c-10.5-5.6-28.7-15.2-40.6-21.3l-21.5-11v-137.8
	c0-133.7-0.3-138.4-10.8-158.3c-17.9-34.1-13.6-39.8,31-40c72-0.3,127.6,33.2,159.3,96.2c14.2,28.2,18.5,85.1,18.8,249.7
	C4183,2896.2,4181.2,2905.5,4157.4,2867.8L4157.4,2867.8z M4417.3,2877.4c-0.1-2-0.5-75.7-1-163.9c-1-178.5,1.6-199.3,30.2-243.1
	c15.5-23.8,52.7-54.5,81-66.9c24-10.6,97.7-10.6,108.3,0c7.2,7.2,6.9,9-3.6,23.8c-11.2,15.7-11.4,18.1-13.8,154.7
	c-1.3,76.3-4.3,141.6-6.6,145.2c-2.3,3.5-11.7,9.6-20.9,13.5c-9.2,3.8-25.2,12.4-35.7,18.9c-33.9,21.4-34.6,19.9-37.3-74.3
	c-2.1-72.4-3.5-83.9-10.8-88.4c-6.1-3.8-10.6-3.8-16.7,0c-7.5,4.7-8.7,17.2-10.8,112.4l-2.4,107.1l-23.9,32.3
	C4432.4,2877,4417.7,2888.8,4417.3,2877.4L4417.3,2877.4z M3889,2720.3c-6.6-6.6-7.4-21.5-6.3-108.8l1.3-101.2l13.3-1.5
	c19.4-2.2,39.6,21.2,46.4,53.6c7,33.5,2.5,156.4-5.9,161.7C3927.4,2730.5,3896.9,2728.3,3889,2720.3L3889,2720.3z M4660.2,2718
	c-7.4-4.3-8.4-13.6-8.4-82.4c0-42.6,2.4-85.8,5.2-96.1c7.3-26.4,24.5-42.2,43.9-40.4l15.5,1.5l-1.6,105.2
	c-1.4,89.4-2.8,106.2-9.3,111.2C4696.3,2724.3,4671.8,2724.8,4660.2,2718z M3748.4,2453.7c-14-14.9-13.2-17.6,5.4-17.6
	c18.3,0,39.1-19.3,67.3-62.7c17-26.2,17.2-27.2,9.9-41.8c-10.3-20.6-7.5-41,6-42.9c6.8-1,12.3,2.1,15.9,8.7
	c6.8,12.6,22.6,11.1,32-3.2c6.3-9.6,5.8-10.8-6.6-16.8c-19.6-9.4-20.7-23.1-1.9-23.1c20,0,33.9,14.8,33.9,36.2
	c0,13.8-4.5,21.8-23.3,41.9c-12.8,13.6-35.7,44.9-50.8,69.5C3799,2462.2,3771.6,2478.4,3748.4,2453.7L3748.4,2453.7z M3852.8,2321.2
	c0-2.6-2.1-4.8-4.8-4.8c-2.6,0-4.8,2.1-4.8,4.8s2.1,4.8,4.8,4.8C3850.7,2326,3852.8,2323.9,3852.8,2321.2z M4773.3,2460.2
	c-17.1-7.1-31.1-28.5-25.5-39c6.8-12.7,14.9-11.3,30.8,5.3c19.6,20.5,23.3,18.3,19.8-11.4c-2.5-21.5-1.7-26.3,5-28.9
	c14.9-5.7,23.5,10.5,21.3,40.3C4822.9,2452,4796,2469.6,4773.3,2460.2L4773.3,2460.2z M4295.5,2426.6c-1.6-2.6-7.1-16.9-12.3-31.9
	c-14.1-40.9-30.1-65.1-67.5-101.9c-37-36.4-40-48.1-12.4-48.1c18,0,28.9,6.6,65,39.2c14,12.7,27.6,23,30.1,23
	c2.5,0,14.7-11,27.1-24.4c26.1-28.4,42.2-37.8,64.4-37.8c31.6,0,30.1,8.8-7.6,43.5c-37.7,34.7-59,68.7-72.5,115.6
	C4301.6,2432.4,4300.3,2434.4,4295.5,2426.6L4295.5,2426.6z M3869,2401.7c-1.9-3.1-0.8-6.6,2.4-7.7c3.3-1.1,8-7.3,10.4-13.7
	c2.5-6.4,6.6-10.4,9.3-8.8c5.9,3.7,6.4,16.8,0.6,16.8c-2.3,0-5.4,4.3-6.7,9.6C3882.2,2408.5,3874.4,2410.4,3869,2401.7L3869,2401.7z
	 M4733.2,2401.4c0.1-10.4,57.6-70.6,67.3-70.6c12.6,0,11.7,3-8.7,28.2C4758.2,2400.7,4733,2418.9,4733.2,2401.4z M4700.8,2365.9
	c-3.3-1.3-12.2-11.4-19.8-22.3c-17.6-25.5-52.1-60.6-59.6-60.6c-3.1,0-12.8-6.4-21.5-14.3c-8.7-7.9-20.7-14.3-26.7-14.3
	c-16.5,0-36.2-17.6-36.2-32.4c0-18.9,47.3-101.6,58.1-101.6c12.1,0,11.3,2.9-8.6,35.9c-24.4,40.4-27.1,51.9-15.4,66.8
	c8.6,10.9,23.2,16.7,23.2,9.2c0-1.6-3.8-13.5-8.4-26.5c-10.2-28.7-5.4-34.1,27.5-30.7c11.8,1.3,36.2,3.6,54.1,5.3
	c28.3,2.6,31.8,3.9,26.5,10.2c-4.7,5.6-14.7,6.9-45.8,5.6c-33.9-1.4-39.3-0.6-36.8,5.5c1.6,3.9,4.3,18,6,31.1
	c2.8,21.7,4.7,24.7,21,32.7c9.9,4.8,18,10.8,18,13.3c0,2.5,5.4,6.6,11.9,9.1c6.6,2.5,11.9,7.8,11.9,11.8s3.2,7.3,7.1,7.3
	c3.9,0,12.6,8.6,19.2,19.2c13.5,21.4,21.5,24.5,21.6,8.4c0.1-15.4,6.8-23.9,17.2-21.9c14.8,2.8,13.4,20.6-3.2,39.4
	C4728.2,2368.1,4716.3,2372.2,4700.8,2365.9L4700.8,2365.9z M3768.6,2343c-3.4-8.9,1.6-17,10.4-17c4.2,0,6.9,4.7,6.9,11.9
	C3785.9,2351.2,3773.1,2354.8,3768.6,2343z M3924.6,2342.7c0-1.4,7.5-13.5,16.7-26.9c21.5-31.3,21.5-40.9-0.3-50
	c-13.1-5.5-16.7-9.5-15.5-17.3c1.3-8.7,4.8-10.3,23-10.6c19.5-0.3,21.9-1.7,26.3-14.7c3.9-11.8,7.1-14.1,17.6-12.9
	c10.2,1.2,13.1-0.7,14.4-9.6c1.3-9.4,4-10.9,18.2-9.7c13.3,1.1,15.5,0.1,10.8-4.6c-7.9-7.9-7.5-23.1,0.5-23.1
	c9.3,0,22.3,15.9,22.3,27.2c0,10.5-13.9,25.5-23.5,25.5c-5.9,0-18.8,8.9-50,34.5c-15,12.3-15.7,14.3-13.6,38.5
	c1.8,22.4,0.5,27.4-10.8,40.9c-7.9,9.4-17.3,15.3-24.4,15.3C3929.8,2345.2,3924.6,2344.1,3924.6,2342.7L3924.6,2342.7z
	 M4766.6,2287.4c0-6.8,2.6-9.4,8.3-8.3c12.5,2.4,13.9,18.2,1.6,18.2C4769.7,2297.4,4766.6,2294.3,4766.6,2287.4z M4276.3,2270.7
	c-7.9-6.6-19.2-16.1-25.1-21c-14-11.7-10-21.3,15.3-36.2c25.1-14.7,44.4-15,64.8-1.1c24.7,16.8,28.7,26.8,14.4,36.3
	c-6.5,4.3-18.6,13.8-26.9,21.1C4300.3,2285.9,4294.6,2286,4276.3,2270.7L4276.3,2270.7z M4696.9,2271.6c-1.6-4.1-1.7-9.2-0.3-11.5
	c1.4-2.3-2.2-4-8-3.8c-6.3,0.2-10.5-2.5-10.5-6.8c0-3.9,4.3-7.2,9.6-7.3c5.2-0.1,12.5-2,16-4.1c10.5-6.5,16.1,3.8,11.6,21.3
	C4710.8,2276.8,4701.2,2283.1,4696.9,2271.6L4696.9,2271.6z M4084.7,2208.1c-9.1-9.8-11.7-17.9-11.7-35.5c0-12.6,1.3-26.2,2.9-30.4
	c5.8-15.1,11.4-7,11.4,16.5c0,21.1,1.4,24.6,11.8,28.5c7.7,2.9,17.2,2.6,27.5-0.8c28.1-9.4,36.3-21.1,17-23.9
	c-21.4-3-16.4-36.5,7.7-51.4c23-14.2,38.6-12.9,50.9,4.4c7.1,10,14.2,14.3,23.5,14.3c17.9,0,21.3-4.6,11.3-15.6
	c-7.9-8.8-7.9-9.5,0.9-15.9c21.5-15.7,55.9-3.3,40.9,14.8c-7.5,9.1,4,14.4,21.5,10c6.6-1.7,16.2-0.3,21.5,3
	c7.8,4.9,11.5,4.8,19.7-0.3c8.5-5.3,11.3-5.1,18.6,1.5c7.9,7.2,9.8,6.8,26.5-4.5c17.4-11.8,27.5-14.4,47.7-12.3
	c24.8,2.6,34.4,32.1,17.3,53.3c-10.6,13.1-35.4,13.8-83.6,2.1c-45.6-11-119.9-17.8-134.6-12.2c-21.4,8.1-30.5,5.5-41.8-11.9
	c-11.2-17.2-25.6-21.7-36.2-11.1c-4.5,4.5-2.3,6.8,9.8,10.8c31.5,10.2,15.7,50.7-27.3,70.2C4111.2,2223.9,4098.4,2223,4084.7,2208.1
	L4084.7,2208.1z M4435.3,2143c-2.6-7.8-15.5-10.1-31.5-5.7l-12.8,3.5l11.9,3.6C4422.5,2150.4,4437.6,2149.7,4435.3,2143L4435.3,2143
	z M4477.5,2213.3c-10.4-10.4-9.4-21.8,3.3-40.4c16.2-23.8,24.9-27.7,37.1-16.7c13.2,11.9,9.4,38.4-7.7,53.8
	C4496,2222.7,4487.8,2223.5,4477.5,2213.3z M4503.4,2184.8c-3.3-4-7-6.3-8.3-5.1c-3.3,3.3,3.4,12.4,9.2,12.4
	C4507.5,2192.1,4507.2,2189.4,4503.4,2184.8L4503.4,2184.8z M3957.6,2181.3c-0.3-0.7-1.2-9.4-2.1-19.4c-1.2-13.1,0.4-19,5.8-21
	c4.1-1.6,8.8-0.9,10.5,1.4c1.7,2.4,6.3,4.3,10.3,4.3c3.9,0,7.9,5.1,8.8,11.4c1.3,9.6,0,11-8.4,8.8c-7.6-2-10-0.4-10,6.5
	c0,5-3.2,9.1-7.2,9.1S3957.9,2182,3957.6,2181.3L3957.6,2181.3z M4650.6,2169.5c-25.6-2.7-22.3-8.9,3.6-6.8
	c11.8,0.9,21.5,3.7,21.5,6s-1.6,3.9-3.6,3.5C4670.2,2171.7,4660.5,2170.5,4650.6,2169.5L4650.6,2169.5z M4168.6,2065.4
	c0-4.3,4.8-7.5,11.9-8c6.6-0.4,14.7-0.9,18-1.2c3.3-0.3,6,2.7,6,6.6c0,4.7-5.9,7.5-18,8.5
	C4173.1,2072.3,4168.6,2070.8,4168.6,2065.4L4168.6,2065.4z M4308.9,2064.8c-4.3-11.1,8.8-17.6,17.6-8.7c6.4,6.4,6.4,7.7,0,11.7
	C4316.3,2074.3,4312.3,2073.6,4308.9,2064.8L4308.9,2064.8z"/>
</svg>
